<?xml version="1.0" standalone="no"?>
<!DOCTYPE svg PUBLIC "-//W3C//DTD SVG 20010904//EN"
 "http://www.w3.org/TR/2001/REC-SVG-20010904/DTD/svg10.dtd">
<svg version="1.0" xmlns="http://www.w3.org/2000/svg"
 width="2016.000000pt" height="3756.000000pt" viewBox="0 0 2016.000000 3756.000000"
 preserveAspectRatio="xMidYMid meet">

<g transform="translate(0.000000,3756.000000) scale(0.100000,-0.100000)"
fill="#000000" stroke="none">
<path d="M0 18780 l0 -18780 10080 0 10080 0 0 18780 0 18780 -10080 0 -10080
0 0 -18780z m13647 11210 c889 -71 1506 -322 1963 -796 471 -490 717 -1172
760 -2104 6 -132 10 -1485 10 -3497 l0 -3283 -1150 0 -1150 0 0 3118 c0 1996
-4 3166 -10 3252 -16 215 -49 363 -116 522 -144 343 -421 497 -893 498 -168 0
-318 -22 -443 -64 -126 -43 -198 -86 -279 -167 -113 -113 -212 -344 -256 -601
-16 -96 -18 -262 -21 -2473 -3 -2405 -2 -2541 34 -2945 49 -564 152 -1012 326
-1430 88 -211 291 -596 466 -885 238 -392 460 -721 975 -1445 725 -1018 1278
-1850 1583 -2380 436 -761 705 -1539 824 -2385 42 -300 68 -574 92 -965 16
-264 24 -4893 8 -5240 -19 -456 -73 -787 -184 -1140 -179 -568 -528 -1039
-981 -1327 -430 -273 -935 -419 -1603 -463 -198 -13 -843 -13 -1065 0 -398 24
-700 75 -1002 170 -394 124 -682 291 -937 542 -407 401 -683 999 -784 1698
-50 349 -47 130 -51 3803 l-3 3417 1150 0 1150 0 0 -3127 c0 -2065 4 -3167 10
-3243 26 -290 112 -547 235 -702 157 -199 506 -298 912 -259 311 30 530 141
650 328 120 189 181 393 203 683 14 184 13 4481 0 4770 -12 236 -30 438 -61
660 -70 514 -184 882 -409 1325 -304 599 -718 1241 -1540 2385 -824 1146
-1351 1980 -1618 2556 -447 963 -621 1785 -672 3164 -16 427 -8 5181 8 5340
55 511 129 828 282 1190 197 469 522 859 904 1085 403 238 873 367 1506 414
159 12 1031 12 1177 1z m-5547 -1515 l0 -1165 -1010 0 -1010 0 0 -4715 0
-4715 1010 0 1010 0 0 -1165 0 -1165 -1010 0 -1010 0 0 -5885 0 -5885 -1150 0
-1150 0 0 12930 0 12930 2160 0 2160 0 0 -1165z"/>
</g>
</svg>
